<svg aria-hidden="true" style="width: 0; height: 0; position: absolute; overflow: hidden" version="1.1" xmlns="http://www.w3.org/2000/svg" xmlns:xlink="http://www.w3.org/1999/xlink">
<defs>
<symbol id="icon-label" viewBox="0 0 32 32">
<path d="M29 3h-11.3l-14.9 14.8 11.3 11.3 14.9-14.8v-11.3zM20 12v-4h4v4h-4z"></path>
</symbol>

<symbol id="icon-pencil" viewBox="0 0 32 32">
<path d="M27 0c2.761 0 5 2.239 5 5 0 1.126-0.372 2.164-1 3l-2 2-7-7 2-2c0.836-0.628 1.874-1 3-1zM2 23l-2 9 9-2 18.5-18.5-7-7-18.5 18.5zM22.362 11.362l-14 14-1.724-1.724 14-14 1.724 1.724z"></path>
</symbol>
<symbol id="icon-shopping-cart" viewBox="0 0 24 24">
<path d="M11 21c0-0.552-0.225-1.053-0.586-1.414s-0.862-0.586-1.414-0.586-1.053 0.225-1.414 0.586-0.586 0.862-0.586 1.414 0.225 1.053 0.586 1.414 0.862 0.586 1.414 0.586 1.053-0.225 1.414-0.586 0.586-0.862 0.586-1.414zM22 21c0-0.552-0.225-1.053-0.586-1.414s-0.862-0.586-1.414-0.586-1.053 0.225-1.414 0.586-0.586 0.862-0.586 1.414 0.225 1.053 0.586 1.414 0.862 0.586 1.414 0.586 1.053-0.225 1.414-0.586 0.586-0.862 0.586-1.414zM7.221 7h14.57l-1.371 7.191c-0.046 0.228-0.166 0.425-0.332 0.568-0.18 0.156-0.413 0.246-0.688 0.241h-9.734c-0.232 0.003-0.451-0.071-0.626-0.203-0.19-0.143-0.329-0.351-0.379-0.603zM1 2h3.18l0.848 4.239c0.108 0.437 0.502 0.761 0.972 0.761h1.221l-0.4-2h-0.821c-0.552 0-1 0.448-1 1 0 0.053 0.004 0.105 0.012 0.155 0.004 0.028 0.010 0.057 0.017 0.084l1.671 8.347c0.149 0.751 0.57 1.383 1.14 1.811 0.521 0.392 1.17 0.613 1.854 0.603h9.706c0.748 0.015 1.455-0.261 1.995-0.727 0.494-0.426 0.848-1.013 0.985-1.683l1.602-8.402c0.103-0.543-0.252-1.066-0.795-1.17-0.065-0.013-0.13-0.019-0.187-0.018h-16.18l-0.84-4.196c-0.094-0.462-0.497-0.804-0.98-0.804h-4c-0.552 0-1 0.448-1 1s0.448 1 1 1z"></path>
</symbol>
<symbol id="icon-info" viewBox="0 0 32 32">
<path d="M14 9.5c0-0.825 0.675-1.5 1.5-1.5h1c0.825 0 1.5 0.675 1.5 1.5v1c0 0.825-0.675 1.5-1.5 1.5h-1c-0.825 0-1.5-0.675-1.5-1.5v-1z"></path>
<path d="M20 24h-8v-2h2v-6h-2v-2h6v8h2z"></path>
<path d="M16 0c-8.837 0-16 7.163-16 16s7.163 16 16 16 16-7.163 16-16-7.163-16-16-16zM16 29c-7.18 0-13-5.82-13-13s5.82-13 13-13 13 5.82 13 13-5.82 13-13 13z"></path>
</symbol>
<!-- ======= іконки для оверлея ======= -->
<symbol id="icon-images" viewBox="0 0 36 32">
<path d="M34 4h-2v-2c0-1.1-0.9-2-2-2h-28c-1.1 0-2 0.9-2 2v24c0 1.1 0.9 2 2 2h2v2c0 1.1 0.9 2 2 2h28c1.1 0 2-0.9 2-2v-24c0-1.1-0.9-2-2-2zM4 6v20h-1.996c-0.001-0.001-0.003-0.002-0.004-0.004v-23.993c0.001-0.001 0.002-0.003 0.004-0.004h27.993c0.001 0.001 0.003 0.002 0.004 0.004v1.996h-24c-1.1 0-2 0.9-2 2v0zM34 29.996c-0.001 0.001-0.002 0.003-0.004 0.004h-27.993c-0.001-0.001-0.003-0.002-0.004-0.004v-23.993c0.001-0.001 0.002-0.003 0.004-0.004h27.993c0.001 0.001 0.003 0.002 0.004 0.004v23.993z"></path>
<path d="M30 11c0 1.657-1.343 3-3 3s-3-1.343-3-3 1.343-3 3-3 3 1.343 3 3z"></path>
<path d="M32 28h-24v-4l7-12 8 10h2l7-6z"></path>
</symbol>
<symbol id="icon-table" viewBox="0 0 32 32">
<path d="M0 2v28h32v-28h-32zM12 20v-6h8v6h-8zM20 22v6h-8v-6h8zM20 6v6h-8v-6h8zM10 6v6h-8v-6h8zM2 14h8v6h-8v-6zM22 14h8v6h-8v-6zM22 12v-6h8v6h-8zM2 22h8v6h-8v-6zM22 28v-6h8v6h-8z"></path>
</symbol>
<symbol id="icon-list" viewBox="0 0 32 32">
<path d="M12 2h20v4h-20v-4zM12 14h20v4h-20v-4zM12 26h20v4h-20v-4zM0 4c0-2.209 1.791-4 4-4s4 1.791 4 4c0 2.209-1.791 4-4 4s-4-1.791-4-4zM0 16c0-2.209 1.791-4 4-4s4 1.791 4 4c0 2.209-1.791 4-4 4s-4-1.791-4-4zM0 28c0-2.209 1.791-4 4-4s4 1.791 4 4c0 2.209-1.791 4-4 4s-4-1.791-4-4z"></path>
</symbol>
<!-- ======== іконки для меню ============== -->
<symbol id="icon-home" viewBox="0 0 32 32">
<path d="M32 18.451l-16-12.42-16 12.42v-5.064l16-12.42 16 12.42zM28 18v12h-8v-8h-8v8h-8v-12l12-9z"></path>
</symbol>
<symbol id="icon-menu" viewBox="0 0 32 32">
<path d="M2 6h28v6h-28zM2 14h28v6h-28zM2 22h28v6h-28z"></path>
</symbol>
<symbol id="icon-onMenuOpen" viewBox="0 0 44 32">
<path d="M0 6h28v6h-28v-6zM0 14h28v6h-28v-6zM0 22h28v6h-28v-6z"></path>
<path d="M31 14l6 6 6-6z"></path>
</symbol>
<symbol id="icon-onMenuClose" viewBox="0 0 44 32">
<path d="M0 6h28v6h-28v-6zM0 14h28v6h-28v-6zM0 22h28v6h-28v-6z"></path>
<path d="M31 20l6-6 6 6z"></path>
</symbol>
<symbol id="icon-menu-3" viewBox="0 0 24 24">
<path d="M19 17h-14c-1.103 0-2 0.897-2 2s0.897 2 2 2h14c1.103 0 2-0.897 2-2s-0.897-2-2-2z"></path>
<path d="M19 10h-14c-1.103 0-2 0.897-2 2s0.897 2 2 2h14c1.103 0 2-0.897 2-2s-0.897-2-2-2z"></path>
<path d="M19 3h-14c-1.103 0-2 0.897-2 2s0.897 2 2 2h14c1.103 0 2-0.897 2-2s-0.897-2-2-2z"></path>
</symbol>
<symbol id="icon-menu-2" viewBox="0 0 24 24">
<path d="M3 13h18c0.552 0 1-0.448 1-1s-0.448-1-1-1h-18c-0.552 0-1 0.448-1 1s0.448 1 1 1zM3 7h18c0.552 0 1-0.448 1-1s-0.448-1-1-1h-18c-0.552 0-1 0.448-1 1s0.448 1 1 1zM3 19h18c0.552 0 1-0.448 1-1s-0.448-1-1-1h-18c-0.552 0-1 0.448-1 1s0.448 1 1 1z"></path>
</symbol>
<symbol id="icon-filter-2" viewBox="0 0 24 24">
<path d="M19.845 4l-6.609 7.814c-0.147 0.173-0.236 0.399-0.236 0.646v6.922l-2-1v-5.922c0.001-0.227-0.077-0.457-0.236-0.646l-6.609-7.814zM22 2h-20c-0.552 0-1 0.448-1 1 0 0.247 0.089 0.473 0.236 0.646l7.764 9.18v6.174c0 0.389 0.222 0.727 0.553 0.894l4 2c0.494 0.247 1.095 0.047 1.342-0.447 0.072-0.146 0.106-0.301 0.105-0.447v-8.174l7.764-9.18c0.357-0.422 0.304-1.053-0.118-1.409-0.189-0.16-0.419-0.238-0.646-0.237z"></path>
</symbol>

<symbol id="icon-bookmark-outline" viewBox="0 0 20 20">
<path d="M2 2c0-1.1 0.9-2 2-2h12c1.105 0 2 0.895 2 2v0 18l-8-4-8 4v-18zM4 2v15l6-3 6 3v-15h-12z"></path>
</symbol>
<symbol id="icon-bookmark" viewBox="0 0 20 20">
<path d="M2 2c0-1.1 0.9-2 2-2h12c1.105 0 2 0.895 2 2v0 18l-8-4-8 4v-18z"></path>
</symbol>
<symbol id="icon-share-alt" viewBox="0 0 24 28">
<path d="M19 16c2.766 0 5 2.234 5 5s-2.234 5-5 5-5-2.234-5-5c0-0.172 0.016-0.359 0.031-0.531l-5.625-2.812c-0.891 0.828-2.094 1.344-3.406 1.344-2.766 0-5-2.234-5-5s2.234-5 5-5c1.313 0 2.516 0.516 3.406 1.344l5.625-2.812c-0.016-0.172-0.031-0.359-0.031-0.531 0-2.766 2.234-5 5-5s5 2.234 5 5-2.234 5-5 5c-1.313 0-2.516-0.516-3.406-1.344l-5.625 2.812c0.016 0.172 0.031 0.359 0.031 0.531s-0.016 0.359-0.031 0.531l5.625 2.812c0.891-0.828 2.094-1.344 3.406-1.344z"></path>
</symbol>
<symbol id="icon-bookmark-o" viewBox="0 0 20 28">
<path d="M18 4h-16v19.406l8-7.672 1.391 1.328 6.609 6.344v-19.406zM18.188 2c0.234 0 0.469 0.047 0.688 0.141 0.688 0.266 1.125 0.906 1.125 1.609v20.141c0 0.703-0.438 1.344-1.125 1.609-0.219 0.094-0.453 0.125-0.688 0.125-0.484 0-0.938-0.172-1.297-0.5l-6.891-6.625-6.891 6.625c-0.359 0.328-0.812 0.516-1.297 0.516-0.234 0-0.469-0.047-0.688-0.141-0.688-0.266-1.125-0.906-1.125-1.609v-20.141c0-0.703 0.438-1.344 1.125-1.609 0.219-0.094 0.453-0.141 0.688-0.141h16.375z"></path>
</symbol>
<symbol id="icon-bookmark1" viewBox="0 0 20 28">
<path d="M18.188 2c0.234 0 0.469 0.047 0.688 0.141 0.688 0.266 1.125 0.906 1.125 1.609v20.141c0 0.703-0.438 1.344-1.125 1.609-0.219 0.094-0.453 0.125-0.688 0.125-0.484 0-0.938-0.172-1.297-0.5l-6.891-6.625-6.891 6.625c-0.359 0.328-0.812 0.516-1.297 0.516-0.234 0-0.469-0.047-0.688-0.141-0.688-0.266-1.125-0.906-1.125-1.609v-20.141c0-0.703 0.438-1.344 1.125-1.609 0.219-0.094 0.453-0.141 0.688-0.141h16.375z"></path>
</symbol>
<symbol id="icon-heart-o" viewBox="0 0 28 28">
<path d="M26 9.312c0-4.391-2.969-5.313-5.469-5.313-2.328 0-4.953 2.516-5.766 3.484-0.375 0.453-1.156 0.453-1.531 0-0.812-0.969-3.437-3.484-5.766-3.484-2.5 0-5.469 0.922-5.469 5.313 0 2.859 2.891 5.516 2.922 5.547l9.078 8.75 9.063-8.734c0.047-0.047 2.938-2.703 2.938-5.563zM28 9.312c0 3.75-3.437 6.891-3.578 7.031l-9.734 9.375c-0.187 0.187-0.438 0.281-0.688 0.281s-0.5-0.094-0.688-0.281l-9.75-9.406c-0.125-0.109-3.563-3.25-3.563-7 0-4.578 2.797-7.313 7.469-7.313 2.734 0 5.297 2.156 6.531 3.375 1.234-1.219 3.797-3.375 6.531-3.375 4.672 0 7.469 2.734 7.469 7.313z"></path>
</symbol>
<symbol id="icon-star-o" viewBox="0 0 26 28">
<path d="M17.766 15.687l4.781-4.641-6.594-0.969-2.953-5.969-2.953 5.969-6.594 0.969 4.781 4.641-1.141 6.578 5.906-3.109 5.891 3.109zM26 10.109c0 0.281-0.203 0.547-0.406 0.75l-5.672 5.531 1.344 7.812c0.016 0.109 0.016 0.203 0.016 0.313 0 0.422-0.187 0.781-0.641 0.781-0.219 0-0.438-0.078-0.625-0.187l-7.016-3.687-7.016 3.687c-0.203 0.109-0.406 0.187-0.625 0.187-0.453 0-0.656-0.375-0.656-0.781 0-0.109 0.016-0.203 0.031-0.313l1.344-7.812-5.688-5.531c-0.187-0.203-0.391-0.469-0.391-0.75 0-0.469 0.484-0.656 0.875-0.719l7.844-1.141 3.516-7.109c0.141-0.297 0.406-0.641 0.766-0.641s0.625 0.344 0.766 0.641l3.516 7.109 7.844 1.141c0.375 0.063 0.875 0.25 0.875 0.719z"></path>
</symbol>
<symbol id="icon-star" viewBox="0 0 26 28">
<path d="M26 10.109c0 0.281-0.203 0.547-0.406 0.75l-5.672 5.531 1.344 7.812c0.016 0.109 0.016 0.203 0.016 0.313 0 0.406-0.187 0.781-0.641 0.781-0.219 0-0.438-0.078-0.625-0.187l-7.016-3.687-7.016 3.687c-0.203 0.109-0.406 0.187-0.625 0.187-0.453 0-0.656-0.375-0.656-0.781 0-0.109 0.016-0.203 0.031-0.313l1.344-7.812-5.688-5.531c-0.187-0.203-0.391-0.469-0.391-0.75 0-0.469 0.484-0.656 0.875-0.719l7.844-1.141 3.516-7.109c0.141-0.297 0.406-0.641 0.766-0.641s0.625 0.344 0.766 0.641l3.516 7.109 7.844 1.141c0.375 0.063 0.875 0.25 0.875 0.719z"></path>
</symbol>
<symbol id="icon-heart" viewBox="0 0 28 28">
<path d="M14 26c-0.25 0-0.5-0.094-0.688-0.281l-9.75-9.406c-0.125-0.109-3.563-3.25-3.563-7 0-4.578 2.797-7.313 7.469-7.313 2.734 0 5.297 2.156 6.531 3.375 1.234-1.219 3.797-3.375 6.531-3.375 4.672 0 7.469 2.734 7.469 7.313 0 3.75-3.437 6.891-3.578 7.031l-9.734 9.375c-0.187 0.187-0.438 0.281-0.688 0.281z"></path>
</symbol>
<!-- ============ іконуи для чекбоксів ============ -->
<symbol id="icon-checkbox-checked" viewBox="0 0 32 32">
<path d="M28 0h-24c-2.2 0-4 1.8-4 4v24c0 2.2 1.8 4 4 4h24c2.2 0 4-1.8 4-4v-24c0-2.2-1.8-4-4-4zM14 24.828l-7.414-7.414 2.828-2.828 4.586 4.586 9.586-9.586 2.828 2.828-12.414 12.414z"></path>
</symbol>
<symbol id="icon-checkbox-unchecked" viewBox="0 0 32 32">
<path d="M28 0h-24c-2.2 0-4 1.8-4 4v24c0 2.2 1.8 4 4 4h24c2.2 0 4-1.8 4-4v-24c0-2.2-1.8-4-4-4zM28 28h-24v-24h24v24z"></path>
</symbol>
<symbol id="icon-filter" viewBox="0 0 32 32">
<path d="M16 0c-8.837 0-16 2.239-16 5v3l12 12v10c0 1.105 1.791 2 4 2s4-0.895 4-2v-10l12-12v-3c0-2.761-7.163-5-16-5zM2.95 4.338c0.748-0.427 1.799-0.832 3.040-1.171 2.748-0.752 6.303-1.167 10.011-1.167s7.262 0.414 10.011 1.167c1.241 0.34 2.292 0.745 3.040 1.171 0.494 0.281 0.76 0.519 0.884 0.662-0.124 0.142-0.391 0.38-0.884 0.662-0.748 0.427-1.8 0.832-3.040 1.171-2.748 0.752-6.303 1.167-10.011 1.167s-7.262-0.414-10.011-1.167c-1.24-0.34-2.292-0.745-3.040-1.171-0.494-0.282-0.76-0.519-0.884-0.662 0.124-0.142 0.391-0.38 0.884-0.662z"></path>
</symbol>
<!-- ========== соціальні мережі =============== -->
<symbol id="icon-twitter-1" viewBox="0 0 32 32"><path d="M32 6.078c-1.19.522-2.458.868-3.78 1.036a6.523 6.523 0 0 0 2.886-3.626 13.11 13.11 0 0 1-4.16 1.588A6.574 6.574 0 0 0 22.154 3c-3.632 0-6.556 2.948-6.556 6.562 0 .52.044 1.02.152 1.496-5.454-.266-10.28-2.88-13.522-6.862a6.605 6.605 0 0 0-.898 3.316 6.57 6.57 0 0 0 2.914 5.452 6.479 6.479 0 0 1-2.964-.808v.072c0 3.188 2.274 5.836 5.256 6.446a6.548 6.548 0 0 1-1.72.216 5.8 5.8 0 0 1-1.242-.112c.85 2.598 3.262 4.508 6.13 4.57a13.182 13.182 0 0 1-8.134 2.798c-.538 0-1.054-.024-1.57-.09A18.469 18.469 0 0 0 10.064 29c12.072 0 18.672-10 18.672-18.668 0-.29-.01-.57-.024-.848A13.087 13.087 0 0 0 32 6.078z"></path>
</symbol>
<symbol id="icon-facebook-1" viewBox="0 0 32 32">
<path d="M21.329 5.313h2.921V.225C23.746.156 22.013 0 19.994 0c-4.212 0-7.097 2.649-7.097 7.519V12H8.249v5.688h4.648V32h5.699V17.689h4.46l.708-5.688h-5.169V8.082c.001-1.644.444-2.769 2.735-2.769z"></path>
</symbol>
<symbol id="icon-instagram-1" viewBox="0 0 32 32">
<path d="M31.969 9.408c-.075-1.7-.35-2.869-.744-3.882a7.806 7.806 0 0 0-1.851-2.838A7.867 7.867 0 0 0 26.542.844C25.523.45 24.36.175 22.66.1 20.947.019 20.403 0 16.059 0s-4.888.019-6.595.094c-1.7.075-2.869.35-3.882.744a7.803 7.803 0 0 0-2.838 1.85A7.867 7.867 0 0 0 .9 5.52C.506 6.539.231 7.702.156 9.402c-.081 1.713-.1 2.257-.1 6.601s.019 4.888.094 6.595c.075 1.7.35 2.869.744 3.882a7.895 7.895 0 0 0 1.85 2.838 7.867 7.867 0 0 0 2.832 1.844c1.019.394 2.182.669 3.882.744 1.706.075 2.25.094 6.595.094s4.888-.019 6.595-.094c1.7-.075 2.869-.35 3.882-.744a8.184 8.184 0 0 0 4.682-4.682c.394-1.019.669-2.182.744-3.882.075-1.707.094-2.251.094-6.595s-.006-4.888-.081-6.595zm-2.882 13.065c-.069 1.563-.331 2.407-.55 2.969a5.31 5.31 0 0 1-3.038 3.038c-.563.219-1.413.481-2.969.55-1.688.075-2.194.094-6.464.094s-4.782-.019-6.464-.094c-1.563-.069-2.407-.331-2.969-.55a4.926 4.926 0 0 1-1.838-1.194 4.974 4.974 0 0 1-1.194-1.838c-.219-.563-.481-1.413-.55-2.969-.075-1.688-.094-2.194-.094-6.464s.019-4.782.094-6.464c.069-1.563.331-2.407.55-2.969a4.868 4.868 0 0 1 1.2-1.838A4.974 4.974 0 0 1 6.639 3.55c.563-.219 1.413-.481 2.969-.55 1.688-.075 2.194-.094 6.464-.094 4.276 0 4.782.019 6.464.094 1.563.069 2.407.331 2.969.55a4.914 4.914 0 0 1 1.838 1.194 4.974 4.974 0 0 1 1.194 1.838c.219.563.481 1.413.55 2.969.075 1.688.094 2.194.094 6.464s-.019 4.77-.094 6.458z"></path>
<path d="M16.059 7.783c-4.538 0-8.22 3.682-8.22 8.22s3.682 8.22 8.22 8.22c4.539 0 8.22-3.682 8.22-8.22s-3.682-8.22-8.22-8.22zm0 13.552a5.333 5.333 0 0 1 0-10.664 5.333 5.333 0 0 1 0 10.664zM26.524 7.458a1.919 1.919 0 1 1-3.838 0 1.919 1.919 0 0 1 3.838 0z"></path>
</symbol>
<symbol id="icon-linkedin-1" viewBox="0 0 32 32"><path d="M31.992 32v-.001H32V20.263c0-5.741-1.236-10.164-7.948-10.164-3.227 0-5.392 1.771-6.276 3.449h-.093v-2.913h-6.364v21.364h6.627V21.42c0-2.785.528-5.479 3.977-5.479 3.399 0 3.449 3.179 3.449 5.657v10.401h6.62zM.528 10.636h6.635V32H.528V10.636zM3.843 0C1.722 0 0 1.721 0 3.843s1.721 3.879 3.843 3.879c2.121 0 3.843-1.757 3.843-3.879A3.846 3.846 0 0 0 3.843 0z"></path>
</symbol>
<symbol id="icon-facebook" viewBox="0 0 32 32">
<path d="M19 6h5v-6h-5c-3.86 0-7 3.14-7 7v3h-4v6h4v16h6v-16h5l1-6h-6v-3c0-0.542 0.458-1 1-1z"></path>
</symbol>
<symbol id="icon-tiktok" viewBox="0 0 32 32">
<path d="M16.707 0.027c1.747-0.027 3.48-0.013 5.213-0.027 0.107 2.040 0.84 4.12 2.333 5.56 1.493 1.48 3.6 2.16 5.653 2.387v5.373c-1.92-0.067-3.853-0.467-5.6-1.293-0.76-0.347-1.467-0.787-2.16-1.24-0.013 3.893 0.013 7.787-0.027 11.667-0.107 1.867-0.72 3.72-1.8 5.253-1.747 2.56-4.773 4.227-7.88 4.28-1.907 0.107-3.813-0.413-5.44-1.373-2.693-1.587-4.587-4.493-4.867-7.613-0.027-0.667-0.040-1.333-0.013-1.987 0.24-2.533 1.493-4.96 3.44-6.613 2.213-1.92 5.307-2.84 8.2-2.293 0.027 1.973-0.053 3.947-0.053 5.92-1.32-0.427-2.867-0.307-4.027 0.493-0.84 0.547-1.48 1.387-1.813 2.333-0.28 0.68-0.2 1.427-0.187 2.147 0.32 2.187 2.427 4.027 4.667 3.827 1.493-0.013 2.92-0.88 3.693-2.147 0.253-0.44 0.533-0.893 0.547-1.413 0.133-2.387 0.080-4.76 0.093-7.147 0.013-5.373-0.013-10.733 0.027-16.093z"></path>
</symbol>
<symbol id="icon-instagram" viewBox="0 0 32 32">
<path d="M16 2.881c4.275 0 4.781 0.019 6.462 0.094 1.563 0.069 2.406 0.331 2.969 0.55 0.744 0.288 1.281 0.638 1.837 1.194 0.563 0.563 0.906 1.094 1.2 1.838 0.219 0.563 0.481 1.412 0.55 2.969 0.075 1.688 0.094 2.194 0.094 6.463s-0.019 4.781-0.094 6.463c-0.069 1.563-0.331 2.406-0.55 2.969-0.288 0.744-0.637 1.281-1.194 1.837-0.563 0.563-1.094 0.906-1.837 1.2-0.563 0.219-1.413 0.481-2.969 0.55-1.688 0.075-2.194 0.094-6.463 0.094s-4.781-0.019-6.463-0.094c-1.563-0.069-2.406-0.331-2.969-0.55-0.744-0.288-1.281-0.637-1.838-1.194-0.563-0.563-0.906-1.094-1.2-1.837-0.219-0.563-0.481-1.413-0.55-2.969-0.075-1.688-0.094-2.194-0.094-6.463s0.019-4.781 0.094-6.463c0.069-1.563 0.331-2.406 0.55-2.969 0.288-0.744 0.638-1.281 1.194-1.838 0.563-0.563 1.094-0.906 1.838-1.2 0.563-0.219 1.412-0.481 2.969-0.55 1.681-0.075 2.188-0.094 6.463-0.094zM16 0c-4.344 0-4.887 0.019-6.594 0.094-1.7 0.075-2.869 0.35-3.881 0.744-1.056 0.412-1.95 0.956-2.837 1.85-0.894 0.888-1.438 1.781-1.85 2.831-0.394 1.019-0.669 2.181-0.744 3.881-0.075 1.713-0.094 2.256-0.094 6.6s0.019 4.887 0.094 6.594c0.075 1.7 0.35 2.869 0.744 3.881 0.413 1.056 0.956 1.95 1.85 2.837 0.887 0.887 1.781 1.438 2.831 1.844 1.019 0.394 2.181 0.669 3.881 0.744 1.706 0.075 2.25 0.094 6.594 0.094s4.888-0.019 6.594-0.094c1.7-0.075 2.869-0.35 3.881-0.744 1.050-0.406 1.944-0.956 2.831-1.844s1.438-1.781 1.844-2.831c0.394-1.019 0.669-2.181 0.744-3.881 0.075-1.706 0.094-2.25 0.094-6.594s-0.019-4.887-0.094-6.594c-0.075-1.7-0.35-2.869-0.744-3.881-0.394-1.063-0.938-1.956-1.831-2.844-0.887-0.887-1.781-1.438-2.831-1.844-1.019-0.394-2.181-0.669-3.881-0.744-1.712-0.081-2.256-0.1-6.6-0.1v0z"></path>
<path d="M16 7.781c-4.537 0-8.219 3.681-8.219 8.219s3.681 8.219 8.219 8.219 8.219-3.681 8.219-8.219c0-4.537-3.681-8.219-8.219-8.219zM16 21.331c-2.944 0-5.331-2.387-5.331-5.331s2.387-5.331 5.331-5.331c2.944 0 5.331 2.387 5.331 5.331s-2.387 5.331-5.331 5.331z"></path>
<path d="M26.462 7.456c0 1.060-0.859 1.919-1.919 1.919s-1.919-0.859-1.919-1.919c0-1.060 0.859-1.919 1.919-1.919s1.919 0.859 1.919 1.919z"></path>
</symbol>
<symbol id="icon-youtube" viewBox="0 0 80 32">
<path d="M10.75 5.294c0.007-0.027 0.011-0.046 0.012-0.056l0.033-0.236-1.48-0.008c-1.337-0.008-1.746 0-1.783 0.034-0.018 0.016-0.479 1.77-1.302 4.946-0.392 1.515-0.723 2.725-0.734 2.689s-0.481-1.766-1.044-3.843c-0.563-2.078-1.034-3.789-1.048-3.803-0.019-0.019-1.812-0.028-3.263-0.016-0.21 0.002-0.327-0.41 1.876 6.598 0.305 0.97 0.762 2.344 1.015 3.052 0.292 0.817 0.5 1.448 0.642 1.974 0.251 1.002 0.26 1.63 0.205 2.363-0.063 0.847-0.073 6.826-0.011 6.926 0.047 0.077 2.851 0.112 3.116 0.040 0.042-0.012 0.071-0.053 0.090-0.279 0.066-0.194 0.071-0.968 0.071-4.18v-4.103l0.179-0.566c0.117-0.37 0.413-1.344 0.656-2.163s0.538-1.801 0.654-2.18c1.057-3.447 2.067-6.838 2.094-7.032l0.022-0.158z"></path>
<path d="M26.441 10.27l-0.001 0.214-0.033 0-0.019 5.906-0.018 5.726-0.458 0.467c-0.513 0.522-0.925 0.722-1.297 0.629-0.405-0.102-0.395 0.056-0.429-6.712l-0.031-6.23h-2.947v0.214h-0.034v6.759c0 7.242-0 7.237 0.367 7.965 0.293 0.579 0.719 0.861 1.45 0.958h0c0.962 0.128 2-0.308 2.962-1.244l0.418-0.407v0.701c0 0.606 0.017 0.706 0.127 0.737 0.18 0.050 2.412 0.053 2.653 0.004l0.2-0.041v-0.207l0.034-0.007v-15.472l-2.944 0.039z"></path>
<path d="M18.965 13.323c-0.279-1.198-0.802-2.004-1.664-2.561-1.353-0.875-2.897-0.967-4.331-0.259-1.045 0.516-1.717 1.372-2.065 2.628-0.041 0.15-0.072 0.275-0.095 0.463-0.088 0.443-0.099 1.105-0.122 4.186-0.035 4.748 0.019 5.313 0.614 6.391 0.583 1.058 1.794 1.833 3.112 1.993 0.397 0.048 1.201-0.027 1.663-0.155 1.051-0.291 2.058-1.122 2.504-2.065 0.192-0.407 0.309-0.691 0.379-1.208 0.13-0.707 0.14-1.849 0.14-4.762-0-3.715-0.012-4.121-0.136-4.651zM15.604 23c-0.247 0.188-0.679 0.27-1.031 0.195-0.271-0.058-0.636-0.482-0.748-0.869-0.14-0.482-0.151-7.187-0.030-8.502 0.199-0.658 0.756-1.002 1.364-0.838 0.474 0.128 0.716 0.424 0.854 1.046 0.103 0.461 0.115 1.035 0.093 4.414-0.014 2.241-0.022 3.336-0.096 3.924-0.074 0.371-0.197 0.47-0.407 0.63z"></path>
<path d="M71.887 16.692h1.424l-0.023-1.29c-0.022-1.183-0.039-1.319-0.198-1.64-0.249-0.507-0.617-0.731-1.201-0.731-0.701 0-1.146 0.339-1.356 1.036-0.089 0.296-0.183 2.334-0.116 2.51 0.038 0.098 0.241 0.116 1.469 0.116z"></path>
<path d="M62.369 13.757c-0.19-0.383-0.543-0.571-0.954-0.556-0.319 0.011-0.674 0.146-1.015 0.407l-0.254 0.193v9.269l0.254 0.193c0.576 0.439 1.209 0.532 1.644 0.241 0.172-0.115 0.285-0.274 0.372-0.527 0.114-0.329 0.124-0.75 0.109-4.649-0.015-4.064-0.024-4.303-0.157-4.57z"></path>
<path d="M80.027 9.582c-0.284-3.401-0.509-4.505-1.211-5.923-0.929-1.878-2.272-2.868-4.184-3.086-1.478-0.168-7.041-0.405-12.189-0.52-8.912-0.198-23.564 0.183-25.436 0.662-0.865 0.221-1.513 0.597-2.188 1.269-1.183 1.177-1.887 2.865-2.17 5.2-0.647 5.331-0.66 11.773-0.037 17.297 0.268 2.376 0.82 3.92 1.857 5.192 0.647 0.794 1.761 1.469 2.758 1.67 0.7 0.141 4.201 0.337 9.3 0.521 0.76 0.027 2.771 0.074 4.47 0.105 3.541 0.063 10.051 0.026 13.772-0.079 2.504-0.070 7.069-0.255 7.922-0.321 0.24-0.019 0.796-0.054 1.236-0.079 1.477-0.083 2.417-0.393 3.3-1.086 1.142-0.897 2.027-2.556 2.4-4.501 0.354-1.84 0.59-5.118 0.638-8.839 0.040-3.109-0.013-4.787-0.238-7.482zM44.54 8.35l-1.656 0.020-0.073 17.661-1.435 0.018c-1.11 0.015-1.447-0.001-1.474-0.073-0.019-0.051-0.042-4.032-0.052-8.849l-0.018-8.758-3.234-0.041v-2.76l9.557 0.039 0.041 2.721-1.656 0.020zM54.694 18.472v7.595h-2.616v-0.799c0-0.601-0.023-0.799-0.093-0.799-0.051 0-0.288 0.198-0.527 0.441-0.517 0.526-1.13 0.949-1.653 1.145-1.083 0.405-2.112 0.169-2.551-0.586-0.401-0.691-0.409-0.845-0.409-8.010v-6.58h2.614l0.020 6.196c0.019 6.088 0.022 6.2 0.168 6.448 0.193 0.329 0.488 0.417 0.956 0.288 0.276-0.076 0.464-0.21 0.911-0.654l0.563-0.561v-11.717h2.616v7.595zM64.899 24.982c-0.23 0.513-0.744 1.016-1.165 1.14-1.099 0.324-1.98 0.060-2.998-0.897-0.316-0.297-0.61-0.538-0.654-0.538-0.053 0-0.082 0.233-0.082 0.69v0.69h-2.616v-20.495h2.616v3.343c0 1.839 0.025 3.343 0.054 3.343s0.306-0.244 0.613-0.541c0.707-0.683 1.298-0.981 2.049-1.038 1.338-0.101 2.135 0.587 2.501 2.16 0.114 0.491 0.125 1.051 0.125 5.596-0 5.537-0.001 5.56-0.443 6.546zM75.968 21.943c-0.023 0.57-0.092 1.223-0.154 1.454-0.364 1.349-1.332 2.304-2.732 2.696-1.885 0.527-3.96-0.337-4.788-1.994-0.465-0.93-0.481-1.116-0.481-5.662 0-3.707 0.013-4.162 0.132-4.667 0.336-1.431 1.168-2.357 2.578-2.871 0.408-0.149 0.835-0.225 1.261-0.234 1.521-0.031 3.031 0.787 3.663 2.119 0.427 0.899 0.48 1.283 0.522 3.816l0.039 2.271-5.578 0.039-0.020 1.526c-0.029 2.153 0.116 2.815 0.697 3.207 0.489 0.329 1.24 0.305 1.649-0.055 0.383-0.337 0.491-0.698 0.529-1.753l0.034-0.927h2.694l-0.043 1.036z"></path>
</symbol>
<symbol id="icon-youtube-play" viewBox="0 0 32 32">
<path d="M30.662 5.003c-4.488-0.645-9.448-1.003-14.662-1.003s-10.174 0.358-14.662 1.003c-0.86 3.366-1.338 7.086-1.338 10.997s0.477 7.63 1.338 10.997c4.489 0.645 9.448 1.003 14.662 1.003s10.174-0.358 14.662-1.003c0.86-3.366 1.338-7.086 1.338-10.997s-0.477-7.63-1.338-10.997zM12 22v-12l10 6-10 6z"></path>
</symbol>
<symbol id="icon-pinterest" viewBox="0 0 32 32">
<path d="M16 2.138c-7.656 0-13.863 6.206-13.863 13.863 0 5.875 3.656 10.887 8.813 12.906-0.119-1.094-0.231-2.781 0.050-3.975 0.25-1.081 1.625-6.887 1.625-6.887s-0.412-0.831-0.412-2.056c0-1.925 1.119-3.369 2.506-3.369 1.181 0 1.756 0.887 1.756 1.95 0 1.188-0.756 2.969-1.15 4.613-0.331 1.381 0.688 2.506 2.050 2.506 2.462 0 4.356-2.6 4.356-6.35 0-3.319-2.387-5.638-5.787-5.638-3.944 0-6.256 2.956-6.256 6.019 0 1.194 0.456 2.469 1.031 3.163 0.113 0.137 0.131 0.256 0.094 0.4-0.106 0.438-0.338 1.381-0.387 1.575-0.063 0.256-0.2 0.306-0.463 0.188-1.731-0.806-2.813-3.337-2.813-5.369 0-4.375 3.175-8.387 9.156-8.387 4.806 0 8.544 3.425 8.544 8.006 0 4.775-3.012 8.625-7.194 8.625-1.406 0-2.725-0.731-3.175-1.594 0 0-0.694 2.644-0.863 3.294-0.313 1.206-1.156 2.712-1.725 3.631 1.3 0.4 2.675 0.619 4.106 0.619 7.656 0 13.863-6.206 13.863-13.863 0-7.662-6.206-13.869-13.863-13.869z"></path>
</symbol>
<symbol id="icon-pinterest2" viewBox="0 0 32 32">
<path d="M16 0c-8.825 0-16 7.175-16 16s7.175 16 16 16 16-7.175 16-16-7.175-16-16-16zM16 29.863c-1.431 0-2.806-0.219-4.106-0.619 0.563-0.919 1.412-2.431 1.725-3.631 0.169-0.65 0.863-3.294 0.863-3.294 0.45 0.863 1.775 1.594 3.175 1.594 4.181 0 7.194-3.844 7.194-8.625 0-4.581-3.738-8.006-8.544-8.006-5.981 0-9.156 4.019-9.156 8.387 0 2.031 1.081 4.563 2.813 5.369 0.262 0.125 0.4 0.069 0.463-0.188 0.044-0.194 0.281-1.131 0.387-1.575 0.031-0.137 0.019-0.262-0.094-0.4-0.575-0.694-1.031-1.975-1.031-3.162 0-3.056 2.313-6.019 6.256-6.019 3.406 0 5.788 2.319 5.788 5.637 0 3.75-1.894 6.35-4.356 6.35-1.363 0-2.381-1.125-2.050-2.506 0.394-1.65 1.15-3.425 1.15-4.613 0-1.063-0.569-1.95-1.756-1.95-1.394 0-2.506 1.438-2.506 3.369 0 1.225 0.412 2.056 0.412 2.056s-1.375 5.806-1.625 6.887c-0.281 1.2-0.169 2.881-0.050 3.975-5.156-2.012-8.813-7.025-8.813-12.9 0-7.656 6.206-13.863 13.862-13.863s13.863 6.206 13.863 13.863c0 7.656-6.206 13.863-13.863 13.863z"></path>
</symbol>
<symbol id="icon-link" viewBox="0 0 32 32">
<path d="M13.757 19.868c-0.416 0-0.832-0.159-1.149-0.476-2.973-2.973-2.973-7.81 0-10.783l6-6c1.44-1.44 3.355-2.233 5.392-2.233s3.951 0.793 5.392 2.233c2.973 2.973 2.973 7.81 0 10.783l-2.743 2.743c-0.635 0.635-1.663 0.635-2.298 0s-0.635-1.663 0-2.298l2.743-2.743c1.706-1.706 1.706-4.481 0-6.187-0.826-0.826-1.925-1.281-3.094-1.281s-2.267 0.455-3.094 1.281l-6 6c-1.706 1.706-1.706 4.481 0 6.187 0.635 0.635 0.635 1.663 0 2.298-0.317 0.317-0.733 0.476-1.149 0.476z"></path>
<path d="M8 31.625c-2.037 0-3.952-0.793-5.392-2.233-2.973-2.973-2.973-7.81 0-10.783l2.743-2.743c0.635-0.635 1.664-0.635 2.298 0s0.635 1.663 0 2.298l-2.743 2.743c-1.706 1.706-1.706 4.481 0 6.187 0.826 0.826 1.925 1.281 3.094 1.281s2.267-0.455 3.094-1.281l6-6c1.706-1.706 1.706-4.481 0-6.187-0.635-0.635-0.635-1.663 0-2.298s1.663-0.635 2.298 0c2.973 2.973 2.973 7.81 0 10.783l-6 6c-1.44 1.44-3.355 2.233-5.392 2.233z"></path>
</symbol>
<symbol id="icon-share" viewBox="0 0 32 32">
<path d="M27 22c-1.411 0-2.685 0.586-3.594 1.526l-13.469-6.734c0.041-0.258 0.063-0.522 0.063-0.791s-0.022-0.534-0.063-0.791l13.469-6.734c0.909 0.94 2.183 1.526 3.594 1.526 2.761 0 5-2.239 5-5s-2.239-5-5-5-5 2.239-5 5c0 0.269 0.022 0.534 0.063 0.791l-13.469 6.734c-0.909-0.94-2.183-1.526-3.594-1.526-2.761 0-5 2.239-5 5s2.239 5 5 5c1.411 0 2.685-0.586 3.594-1.526l13.469 6.734c-0.041 0.258-0.063 0.522-0.063 0.791 0 2.761 2.239 5 5 5s5-2.239 5-5c0-2.761-2.239-5-5-5z"></path>
</symbol>
<symbol id="icon-send" viewBox="0 0 24 24">
<path d="M24 0L0 13.5L7.66994 16.3407L19.5 5.25002L10.5017 17.3896L10.509 17.3923L10.5 17.3896V24.0001L14.8013 18.982L20.2501 21.0001L24 0Z"></path>
</symbol>

<!-- ===================== CRM ============== -->
<symbol id="icon-decline" viewBox="0 0 32 32">
<path d="M31.708 25.708c-0-0-0-0-0-0l-9.708-9.708 9.708-9.708c0-0 0-0 0-0 0.105-0.105 0.18-0.227 0.229-0.357 0.133-0.356 0.057-0.771-0.229-1.057l-4.586-4.586c-0.286-0.286-0.702-0.361-1.057-0.229-0.13 0.048-0.252 0.124-0.357 0.228 0 0-0 0-0 0l-9.708 9.708-9.708-9.708c-0-0-0-0-0-0-0.105-0.104-0.227-0.18-0.357-0.228-0.356-0.133-0.771-0.057-1.057 0.229l-4.586 4.586c-0.286 0.286-0.361 0.702-0.229 1.057 0.049 0.13 0.124 0.252 0.229 0.357 0 0 0 0 0 0l9.708 9.708-9.708 9.708c-0 0-0 0-0 0-0.104 0.105-0.18 0.227-0.229 0.357-0.133 0.355-0.057 0.771 0.229 1.057l4.586 4.586c0.286 0.286 0.702 0.361 1.057 0.229 0.13-0.049 0.252-0.124 0.357-0.229 0-0 0-0 0-0l9.708-9.708 9.708 9.708c0 0 0 0 0 0 0.105 0.105 0.227 0.18 0.357 0.229 0.356 0.133 0.771 0.057 1.057-0.229l4.586-4.586c0.286-0.286 0.362-0.702 0.229-1.057-0.049-0.13-0.124-0.252-0.229-0.357z"></path>
</symbol>
<symbol id="icon-accept" viewBox="0 0 32 32">
<path d="M27 4l-15 15-7-7-5 5 12 12 20-20z"></path>
</symbol>
<symbol id="icon-plus" viewBox="0 0 32 32">
<path d="M31 12h-11v-11c0-0.552-0.448-1-1-1h-6c-0.552 0-1 0.448-1 1v11h-11c-0.552 0-1 0.448-1 1v6c0 0.552 0.448 1 1 1h11v11c0 0.552 0.448 1 1 1h6c0.552 0 1-0.448 1-1v-11h11c0.552 0 1-0.448 1-1v-6c0-0.552-0.448-1-1-1z"></path>
</symbol>
<!-- icons form -->
<symbol id="icon-smartphone" viewBox="0 0 20 32">
<path d="M17 0H3C1.346 0 0 1.346 0 3v26c0 1.654 1.346 3 3 3h14c1.654 0 3-1.346 3-3V3c0-1.654-1.346-3-3-3zM3 2h14a1 1 0 0 1 1 1v21H2V3a1 1 0 0 1 1-1zm14 28H3a1 1 0 0 1-1-1v-3h16v3a1 1 0 0 1-1 1z"></path>
<path d="M4.707 27.478c.391.365.391.956 0 1.321s-1.024.365-1.414 0c-.391-.365-.391-.956 0-1.321s1.024-.365 1.414 0z"></path>
</symbol>
<symbol id="icon-envelope" viewBox="0 0 43 32">
<path d="M38.667 0H4C1.794 0 0 1.794 0 4v24c0 2.206 1.794 4 4 4h34.667c2.206 0 4-1.794 4-4V4c0-2.206-1.794-4-4-4zm0 2.667c.181 0 .353.038.511.103L21.334 18.236 3.49 2.77a1.32 1.32 0 0 1 .511-.103h34.667zm0 26.666H4A1.334 1.334 0 0 1 2.667 28V5.587L20.46 21.008a1.335 1.335 0 0 0 1.748 0L40.001 5.587V28c0 .736-.598 1.333-1.333 1.333z"></path>
</symbol>
<symbol id="burger-btn" width="24" height="16" viewBox="0 0 24 16">
<path fill-rule="evenodd" clip-rule="evenodd" d="M0 2.66667V0H24V2.66667H0ZM0 9.33333H24V6.66667H0V9.33333ZM0 16H24V13.3333H0V16Z"></path>
</symbol>

<symbol id="icon-files-empty" viewBox="0 0 32 32">
<path d="M28.681 11.159c-0.694-0.947-1.662-2.053-2.724-3.116s-2.169-2.030-3.116-2.724c-1.612-1.182-2.393-1.319-2.841-1.319h-11.5c-1.379 0-2.5 1.122-2.5 2.5v23c0 1.378 1.121 2.5 2.5 2.5h19c1.378 0 2.5-1.122 2.5-2.5v-15.5c0-0.448-0.137-1.23-1.319-2.841zM24.543 9.457c0.959 0.959 1.712 1.825 2.268 2.543h-4.811v-4.811c0.718 0.556 1.584 1.309 2.543 2.268v0zM28 29.5c0 0.271-0.229 0.5-0.5 0.5h-19c-0.271 0-0.5-0.229-0.5-0.5v-23c0-0.271 0.229-0.5 0.5-0.5 0 0 11.499-0 11.5 0v7c0 0.552 0.448 1 1 1h7v15.5z"></path>
<path d="M18.841 1.319c-1.612-1.182-2.393-1.319-2.841-1.319h-11.5c-1.378 0-2.5 1.121-2.5 2.5v23c0 1.207 0.86 2.217 2 2.45v-25.45c0-0.271 0.229-0.5 0.5-0.5h15.215c-0.301-0.248-0.595-0.477-0.873-0.681z"></path>
</symbol>
<symbol id="icon-price-tags" viewBox="0 0 40 32">
<path d="M38.5 0h-12c-0.825 0-1.977 0.477-2.561 1.061l-14.879 14.879c-0.583 0.583-0.583 1.538 0 2.121l12.879 12.879c0.583 0.583 1.538 0.583 2.121 0l14.879-14.879c0.583-0.583 1.061-1.736 1.061-2.561v-12c0-0.825-0.675-1.5-1.5-1.5zM31 12c-1.657 0-3-1.343-3-3s1.343-3 3-3 3 1.343 3 3-1.343 3-3 3z"></path>
<path d="M4 17l17-17h-2.5c-0.825 0-1.977 0.477-2.561 1.061l-14.879 14.879c-0.583 0.583-0.583 1.538 0 2.121l12.879 12.879c0.583 0.583 1.538 0.583 2.121 0l0.939-0.939-13-13z"></path>
</symbol>
<symbol id="icon-barcode" viewBox="0 0 32 32">
<path d="M0 4h4v20h-4zM6 4h2v20h-2zM10 4h2v20h-2zM16 4h2v20h-2zM24 4h2v20h-2zM30 4h2v20h-2zM20 4h1v20h-1zM14 4h1v20h-1zM27 4h1v20h-1zM0 26h2v2h-2zM6 26h2v2h-2zM10 26h2v2h-2zM20 26h2v2h-2zM30 26h2v2h-2zM24 26h4v2h-4zM14 26h4v2h-4z"></path>
</symbol>
<symbol id="icon-qrcode" viewBox="0 0 32 32">
<path d="M10 2h-8v8h8v-8zM12 0v0 12h-12v-12h12zM4 4h4v4h-4zM30 2h-8v8h8v-8zM32 0v0 12h-12v-12h12zM24 4h4v4h-4zM10 22h-8v8h8v-8zM12 20v0 12h-12v-12h12zM4 24h4v4h-4zM14 0h2v2h-2zM16 2h2v2h-2zM14 4h2v2h-2zM16 6h2v2h-2zM14 8h2v2h-2zM16 10h2v2h-2zM14 12h2v2h-2zM14 16h2v2h-2zM16 18h2v2h-2zM14 20h2v2h-2zM16 22h2v2h-2zM14 24h2v2h-2zM16 26h2v2h-2zM14 28h2v2h-2zM16 30h2v2h-2zM30 16h2v2h-2zM2 16h2v2h-2zM4 14h2v2h-2zM0 14h2v2h-2zM8 14h2v2h-2zM10 16h2v2h-2zM12 14h2v2h-2zM18 16h2v2h-2zM20 14h2v2h-2zM22 16h2v2h-2zM24 14h2v2h-2zM26 16h2v2h-2zM28 14h2v2h-2zM30 20h2v2h-2zM18 20h2v2h-2zM20 18h2v2h-2zM22 20h2v2h-2zM26 20h2v2h-2zM28 18h2v2h-2zM30 24h2v2h-2zM18 24h2v2h-2zM20 22h2v2h-2zM24 22h2v2h-2zM26 24h2v2h-2zM28 22h2v2h-2zM30 28h2v2h-2zM20 26h2v2h-2zM22 28h2v2h-2zM24 26h2v2h-2zM26 28h2v2h-2zM20 30h2v2h-2zM24 30h2v2h-2zM28 30h2v2h-2z"></path>
</symbol>
<symbol id="icon-phone" viewBox="0 0 32 32">
<path d="M22 20c-2 2-2 4-4 4s-4-2-6-4-4-4-4-6 2-2 4-4-4-8-6-8-6 6-6 6c0 4 4.109 12.109 8 16s12 8 16 8c0 0 6-4 6-6s-6-8-8-6z"></path>
</symbol>
<symbol id="icon-bubble2" viewBox="0 0 32 32">
<path d="M16 6c-1.717 0-3.375 0.271-4.928 0.804-1.46 0.502-2.76 1.211-3.863 2.108-2.069 1.681-3.209 3.843-3.209 6.088 0 1.259 0.35 2.481 1.039 3.63 0.711 1.185 1.781 2.268 3.093 3.133 0.949 0.625 1.587 1.623 1.755 2.747 0.056 0.375 0.091 0.753 0.105 1.129 0.233-0.194 0.461-0.401 0.684-0.624 0.755-0.755 1.774-1.172 2.828-1.172 0.168 0 0.336 0.011 0.505 0.032 0.655 0.083 1.325 0.126 1.99 0.126 1.717 0 3.375-0.271 4.928-0.804 1.46-0.502 2.76-1.211 3.863-2.108 2.069-1.681 3.209-3.843 3.209-6.088s-1.14-4.407-3.209-6.088c-1.104-0.897-2.404-1.606-3.863-2.108-1.553-0.534-3.211-0.804-4.928-0.804zM16 2v0c8.837 0 16 5.82 16 13s-7.163 13-16 13c-0.849 0-1.682-0.054-2.495-0.158-3.437 3.437-7.539 4.053-11.505 4.144v-0.841c2.142-1.049 4-2.961 4-5.145 0-0.305-0.024-0.604-0.068-0.897-3.619-2.383-5.932-6.024-5.932-10.103 0-7.18 7.163-13 16-13z"></path>
</symbol>
<symbol id="icon-search" viewBox="0 0 32 32">
<path d="M31.008 27.231l-7.58-6.447c-0.784-0.705-1.622-1.029-2.299-0.998 1.789-2.096 2.87-4.815 2.87-7.787 0-6.627-5.373-12-12-12s-12 5.373-12 12 5.373 12 12 12c2.972 0 5.691-1.081 7.787-2.87-0.031 0.677 0.293 1.515 0.998 2.299l6.447 7.58c1.104 1.226 2.907 1.33 4.007 0.23s0.997-2.903-0.23-4.007zM12 20c-4.418 0-8-3.582-8-8s3.582-8 8-8 8 3.582 8 8-3.582 8-8 8z"></path>
</symbol>
<symbol id="icon-cog" viewBox="0 0 32 32">
<path d="M29.181 19.070c-1.679-2.908-0.669-6.634 2.255-8.328l-3.145-5.447c-0.898 0.527-1.943 0.829-3.058 0.829-3.361 0-6.085-2.742-6.085-6.125h-6.289c0.008 1.044-0.252 2.103-0.811 3.070-1.679 2.908-5.411 3.897-8.339 2.211l-3.144 5.447c0.905 0.515 1.689 1.268 2.246 2.234 1.676 2.903 0.672 6.623-2.241 8.319l3.145 5.447c0.895-0.522 1.935-0.82 3.044-0.82 3.35 0 6.067 2.725 6.084 6.092h6.289c-0.003-1.034 0.259-2.080 0.811-3.038 1.676-2.903 5.399-3.894 8.325-2.219l3.145-5.447c-0.899-0.515-1.678-1.266-2.232-2.226zM16 22.479c-3.578 0-6.479-2.901-6.479-6.479s2.901-6.479 6.479-6.479c3.578 0 6.479 2.901 6.479 6.479s-2.901 6.479-6.479 6.479z"></path>
</symbol>
<symbol id="icon-eye-minus" viewBox="0 0 32 32">
<path d="M20 4h12v4h-12v-4z"></path>
<path d="M27.198 10h-9.198v-3.887c-0.657-0.074-1.324-0.113-2-0.113-6.979 0-13.028 4.064-16 10 2.972 5.936 9.021 10 16 10s13.027-4.064 16-10c-1.169-2.334-2.813-4.378-4.803-6zM13 10c1.657 0 3 1.343 3 3s-1.343 3-3 3-3-1.343-3-3 1.343-3 3-3zM23.889 20.697c-2.362 1.507-5.090 2.303-7.889 2.303s-5.527-0.796-7.889-2.303c-1.88-1.199-3.473-2.805-4.67-4.697 1.197-1.891 2.79-3.498 4.67-4.697 0.122-0.078 0.246-0.154 0.371-0.228-0.311 0.854-0.482 1.776-0.482 2.737 0 4.418 3.582 8 8 8s8-3.582 8-8c0-0.962-0.17-1.883-0.482-2.737 0.124 0.074 0.248 0.15 0.371 0.228 1.88 1.199 3.473 2.805 4.67 4.697-1.197 1.891-2.79 3.498-4.67 4.697z"></path>
</symbol>
<symbol id="icon-eye-blocked" viewBox="0 0 32 32">
<path d="M29.561 0.439c-0.586-0.586-1.535-0.586-2.121 0l-6.318 6.318c-1.623-0.492-3.342-0.757-5.122-0.757-6.979 0-13.028 4.064-16 10 1.285 2.566 3.145 4.782 5.407 6.472l-4.968 4.968c-0.586 0.586-0.586 1.535 0 2.121 0.293 0.293 0.677 0.439 1.061 0.439s0.768-0.146 1.061-0.439l27-27c0.586-0.586 0.586-1.536 0-2.121zM13 10c1.32 0 2.44 0.853 2.841 2.037l-3.804 3.804c-1.184-0.401-2.037-1.521-2.037-2.841 0-1.657 1.343-3 3-3zM3.441 16c1.197-1.891 2.79-3.498 4.67-4.697 0.122-0.078 0.246-0.154 0.371-0.228-0.311 0.854-0.482 1.776-0.482 2.737 0 1.715 0.54 3.304 1.459 4.607l-1.904 1.904c-1.639-1.151-3.038-2.621-4.114-4.323z"></path>
<path d="M24 13.813c0-0.849-0.133-1.667-0.378-2.434l-10.056 10.056c0.768 0.245 1.586 0.378 2.435 0.378 4.418 0 8-3.582 8-8z"></path>
<path d="M25.938 9.062l-2.168 2.168c0.040 0.025 0.079 0.049 0.118 0.074 1.88 1.199 3.473 2.805 4.67 4.697-1.197 1.891-2.79 3.498-4.67 4.697-2.362 1.507-5.090 2.303-7.889 2.303-1.208 0-2.403-0.149-3.561-0.439l-2.403 2.403c1.866 0.671 3.873 1.036 5.964 1.036 6.978 0 13.027-4.064 16-10-1.407-2.81-3.504-5.2-6.062-6.938z"></path>
</symbol>
<symbol id="icon-plus" viewBox="0 0 32 32">
<path d="M31 12h-11v-11c0-0.552-0.448-1-1-1h-6c-0.552 0-1 0.448-1 1v11h-11c-0.552 0-1 0.448-1 1v6c0 0.552 0.448 1 1 1h11v11c0 0.552 0.448 1 1 1h6c0.552 0 1-0.448 1-1v-11h11c0.552 0 1-0.448 1-1v-6c0-0.552-0.448-1-1-1z"></path>
</symbol>
<symbol id="icon-minus" viewBox="0 0 32 32">
<path d="M0 13v6c0 0.552 0.448 1 1 1h30c0.552 0 1-0.448 1-1v-6c0-0.552-0.448-1-1-1h-30c-0.552 0-1 0.448-1 1z"></path>
</symbol>
<symbol id="icon-cross" viewBox="0 0 32 32">
<path d="M31.708 25.708c-0-0-0-0-0-0l-9.708-9.708 9.708-9.708c0-0 0-0 0-0 0.105-0.105 0.18-0.227 0.229-0.357 0.133-0.356 0.057-0.771-0.229-1.057l-4.586-4.586c-0.286-0.286-0.702-0.361-1.057-0.229-0.13 0.048-0.252 0.124-0.357 0.228 0 0-0 0-0 0l-9.708 9.708-9.708-9.708c-0-0-0-0-0-0-0.105-0.104-0.227-0.18-0.357-0.228-0.356-0.133-0.771-0.057-1.057 0.229l-4.586 4.586c-0.286 0.286-0.361 0.702-0.229 1.057 0.049 0.13 0.124 0.252 0.229 0.357 0 0 0 0 0 0l9.708 9.708-9.708 9.708c-0 0-0 0-0 0-0.104 0.105-0.18 0.227-0.229 0.357-0.133 0.355-0.057 0.771 0.229 1.057l4.586 4.586c0.286 0.286 0.702 0.361 1.057 0.229 0.13-0.049 0.252-0.124 0.357-0.229 0-0 0-0 0-0l9.708-9.708 9.708 9.708c0 0 0 0 0 0 0.105 0.105 0.227 0.18 0.357 0.229 0.356 0.133 0.771 0.057 1.057-0.229l4.586-4.586c0.286-0.286 0.362-0.702 0.229-1.057-0.049-0.13-0.124-0.252-0.229-0.357z"></path>
</symbol>
<symbol id="icon-checkmark" viewBox="0 0 32 32">
<path d="M27 4l-15 15-7-7-5 5 12 12 20-20z"></path>
</symbol>
<symbol id="icon-telegram" viewBox="0 0 32 32">
<path d="M16 0c-8.838 0-16 7.162-16 16s7.162 16 16 16 16-7.163 16-16-7.163-16-16-16zM23.863 10.969l-2.625 12.369c-0.181 0.881-0.712 1.087-1.45 0.681l-4-2.956-1.919 1.869c-0.225 0.219-0.4 0.4-0.8 0.4-0.519 0-0.431-0.194-0.606-0.688l-1.363-4.475-3.956-1.231c-0.856-0.262-0.862-0.85 0.194-1.269l15.412-5.95c0.7-0.319 1.381 0.169 1.113 1.25z"></path>
</symbol>
<symbol id="icon-vimeo" viewBox="0 0 32 32">
<path d="M31.988 8.563c-0.144 3.113-2.319 7.381-6.525 12.794-4.35 5.65-8.031 8.481-11.044 8.481-1.863 0-3.444-1.719-4.731-5.163-0.863-3.156-1.719-6.313-2.581-9.469-0.956-3.444-1.981-5.162-3.081-5.162-0.237 0-1.075 0.506-2.513 1.506l-1.506-1.938c1.581-1.387 3.138-2.775 4.669-4.162 2.106-1.819 3.688-2.775 4.744-2.875 2.487-0.237 4.025 1.463 4.6 5.106 0.619 3.931 1.050 6.375 1.294 7.331 0.719 3.263 1.506 4.894 2.369 4.894 0.669 0 1.675-1.056 3.019-3.175 1.337-2.113 2.056-3.725 2.156-4.831 0.194-1.825-0.525-2.744-2.156-2.744-0.769 0-1.556 0.175-2.369 0.525 1.575-5.15 4.575-7.65 9.012-7.506 3.281 0.087 4.831 2.219 4.644 6.388z"></path>
</symbol>




</defs>
</svg>



